<?xml version="1.0" encoding="utf-8"?>
<!-- Svg Vector Icons : http://www.onlinewebfonts.com/icon -->
<!DOCTYPE svg PUBLIC "-//W3C//DTD SVG 1.1//EN" "http://www.w3.org/Graphics/SVG/1.1/DTD/svg11.dtd">
<svg version="1.1" xmlns="http://www.w3.org/2000/svg" xmlns:xlink="http://www.w3.org/1999/xlink" x="0px" y="0px" viewBox="0 0 1000 1000" enable-background="new 0 0 1000 1000" xml:space="preserve">
<metadata> Svg Vector Icons : http://www.onlinewebfonts.com/icon </metadata>
<g><path d="M72.8,10.5c284.9,2.1,578.3-4.3,857.8,3.2c-24.2,294.8-53.3,584.7-76.8,880.2c-89.8,23-172.7,44.1-265.7,70.4c-29.3,8.3-60.6,25.2-86.4,25.6c-27.3,0.5-59-16.6-89.6-25.6c-87.9-26-176.4-46.9-265.7-70.4C122.8,600.6,95,311.6,69.6,20.1C69.3,15.6,69,11.1,72.8,10.5z M200.8,183.4c-0.6,36.9,8,64.5,9.6,99.2c84.7,9.2,190.7-2.9,275.3,6.4c-88.9,36-174.2,75.4-262.5,112c1.7,38.9,7.7,73.4,9.6,112c137.6,5.3,281.6-9.9,406.5,3.2c1.6,49.6-6.7,89.3-6.4,137.6c-43.3,15.4-91.3,26.1-134.4,41.6c-44.2-13.4-101.6-13.7-140.8-32c-0.9-30-6-55.9-6.4-86.4c-36.3,0-72.6,0-108.8,0c0.1,61.8,6.9,116.8,16,169.6c39.4,10.6,77.4,21.4,118.4,32c34,8.8,87.4,29.5,121.6,28.8c18.8-0.4,41.3-11.1,60.8-16c63.3-16,121.9-31.5,182.4-48c10.9-111.8,20.4-225,28.8-339.3c-75.8-2.1-160,4.3-230.5-3.2c81-34.2,161.5-69,240.1-105.6c2-38.5,5.6-75.5,9.6-112C589.8,186.2,396.1,175.8,200.8,183.4z"/></g>
</svg>