<svg id="Logos" xmlns="http://www.w3.org/2000/svg" xmlns:xlink="http://www.w3.org/1999/xlink" width="80" height="80" viewBox="0 0 80 80"><defs><style>.cls-1{fill:#ebecf0;}.cls-2{fill:#7a869a;}.cls-3{fill:url(#linear-gradient);}.cls-4{fill:url(#linear-gradient-2);}</style><linearGradient id="linear-gradient" x1="38.88" y1="27.15" x2="29.91" y2="36.12" gradientUnits="userSpaceOnUse"><stop offset="0.18" stop-color="#344563"/><stop offset="1" stop-color="#7a869a"/></linearGradient><linearGradient id="linear-gradient-2" x1="41.25" y1="52.91" x2="50.2" y2="43.96" xlink:href="#linear-gradient"/></defs><title>jira software-icon-contained-gradient-neutral</title><rect class="cls-1" width="80" height="80"/><path class="cls-2" d="M60.52,38.85,41.83,20.17,40,18.35h0L26,32.42h0l-6.43,6.43a1.7,1.7,0,0,0,0,2.43L32.38,54.13,40,61.78,54.09,47.71l.22-.22,6.21-6.21A1.72,1.72,0,0,0,60.52,38.85ZM40,46.49,33.6,40.07,40,33.65l6.42,6.42Z"/><path class="cls-3" d="M40,33.65A10.82,10.82,0,0,1,40,18.4l-14,14.05,7.65,7.65L40,33.65Z"/><path class="cls-4" d="M46.46,40.05,40,46.49a10.82,10.82,0,0,1,0,15.29h0L54.11,47.7Z"/></svg>