<svg id="Logos" xmlns="http://www.w3.org/2000/svg" xmlns:xlink="http://www.w3.org/1999/xlink" width="80" height="80" viewBox="0 0 80 80"><defs><style>.cls-1{fill:#0052cc;}.cls-2{fill:#fff;}.cls-3{fill:url(#linear-gradient);}.cls-4{fill:url(#linear-gradient-2);}</style><linearGradient id="linear-gradient" x1="39.7" y1="26.35" x2="30.84" y2="35.21" gradientUnits="userSpaceOnUse"><stop offset="0.07" stop-color="#fff" stop-opacity="0.4"/><stop offset="1" stop-color="#fff"/></linearGradient><linearGradient id="linear-gradient-2" x1="40.6" y1="53.57" x2="50.32" y2="43.86" gradientUnits="userSpaceOnUse"><stop offset="0.07" stop-color="#fff" stop-opacity="0.4"/><stop offset="0.91" stop-color="#fff"/></linearGradient></defs><title>jira software-icon-contained-gradient-white</title><rect class="cls-1" width="80" height="80"/><path class="cls-2" d="M40.05,61.78a10.82,10.82,0,0,0,0-15.29h0L26,32.44l-6.41,6.41a1.72,1.72,0,0,0,0,2.43L40,61.78Z"/><path class="cls-2" d="M60.54,38.85,40,18.36h0l-.06.06,0,0a10.83,10.83,0,0,0,0,15.25L54.13,47.7l6.41-6.42A1.72,1.72,0,0,0,60.54,38.85Z"/><path class="cls-3" d="M40,33.65A10.83,10.83,0,0,1,40,18.4L25.38,33,33,40.67l7-7Z"/><path class="cls-4" d="M47.06,39.48l-7,7a10.82,10.82,0,0,1,0,15.29h0L54.7,47.12Z"/></svg>