<svg id="Logos" xmlns="http://www.w3.org/2000/svg" xmlns:xlink="http://www.w3.org/1999/xlink" width="80" height="80" viewBox="0 0 80 80"><defs><style>.cls-1{fill:#fff;}.cls-2{fill:url(#linear-gradient);}.cls-3{fill:url(#linear-gradient-2);}</style><linearGradient id="linear-gradient" x1="39.48" y1="17.2" x2="24.7" y2="31.98" gradientUnits="userSpaceOnUse"><stop offset="0.07" stop-color="#fff" stop-opacity="0.4"/><stop offset="1" stop-color="#fff"/></linearGradient><linearGradient id="linear-gradient-2" x1="40.98" y1="62.58" x2="57.16" y2="46.39" gradientUnits="userSpaceOnUse"><stop offset="0.07" stop-color="#fff" stop-opacity="0.4"/><stop offset="0.91" stop-color="#fff"/></linearGradient></defs><title>confluence-icon-gradient-white</title><path class="cls-1" d="M40.05,76.25a18,18,0,0,0,0-25.48h0L16.56,27.36,5.88,38a2.88,2.88,0,0,0,0,4.05L40,76.25Z"/><path class="cls-1" d="M74.21,38,40,3.88h0l-.1.11,0,0A18,18,0,0,0,40,29.37L63.52,52.78,74.21,42.09A2.88,2.88,0,0,0,74.21,38Z"/><path class="cls-2" d="M40,29.37A18,18,0,0,1,40,4L15.61,28.33,28.35,41.07l11.7-11.7Z"/><path class="cls-3" d="M51.73,39.08,40.05,50.77a18,18,0,0,1,0,25.48h0L64.47,51.83Z"/></svg>